<?xml version="1.0" standalone="no"?>
<!DOCTYPE svg PUBLIC "-//W3C//DTD SVG 20010904//EN"
 "http://www.w3.org/TR/2001/REC-SVG-20010904/DTD/svg10.dtd">
<svg version="1.0" xmlns="http://www.w3.org/2000/svg"
 width="512.000000pt" height="512.000000pt" viewBox="0 0 512.000000 512.000000"
 preserveAspectRatio="xMidYMid meet">
<metadata>
Created by potrace 1.11, written by Peter Selinger 2001-2013
</metadata>
<g transform="translate(0.000000,512.000000) scale(0.100000,-0.100000)"
fill="#000000" stroke="none">
<path d="M2447 4653 c-1 0 -36 -4 -76 -7 -228 -18 -499 -93 -716 -197 -561
-269 -974 -770 -1129 -1369 -13 -52 -27 -113 -30 -135 -4 -23 -9 -52 -11 -65
-14 -73 -20 -175 -19 -350 1 -153 6 -220 23 -310 12 -63 23 -124 25 -135 2
-11 17 -65 34 -120 101 -341 270 -624 527 -880 354 -355 786 -559 1295 -611
109 -11 400 -4 482 11 12 3 40 7 63 10 22 3 92 19 156 35 593 147 1091 547
1368 1098 105 207 174 438 206 687 12 96 13 441 1 494 -3 12 -8 43 -10 67 -14
116 -78 347 -132 477 -53 126 -175 351 -223 409 -6 7 -39 49 -73 93 -346 444
-862 726 -1448 791 -50 5 -309 12 -313 7z m334 -882 c96 -15 223 -54 312 -96
89 -42 239 -139 279 -182 l28 -29 -167 -167 c-91 -92 -170 -167 -175 -167 -5
0 -32 18 -61 41 -151 119 -365 161 -587 115 -86 -18 -235 -100 -316 -173 -92
-84 -173 -217 -215 -353 -32 -105 -32 -281 -1 -393 80 -282 310 -495 587 -542
341 -58 667 114 764 402 12 34 21 67 21 73 0 7 -110 10 -330 10 -181 0 -331 3
-331 8 -1 4 -2 112 -3 240 l-2 232 578 0 c544 0 578 -1 579 -17 0 -10 3 -27 6
-38 2 -11 6 -94 8 -185 2 -130 -1 -185 -16 -260 -11 -52 -21 -104 -23 -115
-18 -90 -90 -251 -159 -355 -48 -72 -192 -223 -252 -265 -131 -90 -306 -167
-430 -190 -124 -22 -185 -28 -290 -28 -478 1 -889 260 -1109 700 -127 253
-149 612 -55 905 117 369 451 693 817 793 106 29 129 34 217 41 39 4 71 8 73
9 6 6 192 -5 253 -14z"/>
</g>
</svg>
